<svg width="128" height="128" viewBox="0 0 128 128" fill="none" xmlns="http://www.w3.org/2000/svg">
<path d="M63.9919 0C60.8419 0 57.6937 1.20941 55.3022 3.60086L50.6045 8.29848C46.3616 12.5413 40.6045 14.9155 34.6041 14.9155H27.1926C20.4286 14.9155 14.902 20.4419 14.902 27.206V32.6496V34.6214C14.902 40.6217 12.5277 46.3747 8.28487 50.6175L3.58719 55.3152C-1.19573 60.0981 -1.19573 67.9196 3.58719 72.7025L8.28487 77.4001C12.5277 81.643 14.902 87.3919 14.902 93.3922V100.808C14.902 107.572 20.4286 113.098 27.1926 113.098H34.6041C40.6045 113.098 46.3616 115.476 50.6045 119.719L55.3022 124.413C60.0851 129.196 67.8988 129.196 72.6817 124.413L77.3834 119.719C81.6263 115.476 87.3795 113.098 93.3798 113.098H100.791C107.555 113.098 113.082 107.572 113.082 100.808V93.3922C113.082 87.3919 115.476 81.643 119.719 77.4001L124.413 72.7025C129.196 67.9196 129.196 60.0981 124.413 55.3152L119.719 50.6175C115.476 46.3746 113.082 40.6217 113.082 34.6214V27.206C113.082 20.4419 107.555 14.9155 100.791 14.9155H93.3798C87.3795 14.9155 81.6263 12.5414 77.3834 8.29848L72.6817 3.60086C70.2902 1.20941 67.142 7.80299e-06 63.9919 0Z" fill="#9E2891" fill-opacity="0.2"/>
<path d="M63.9929 8C61.2366 8 58.482 9.05824 56.3894 11.1508L52.2789 15.2612C48.5664 18.9737 43.5289 21.051 38.2786 21.051H31.7936C25.875 21.051 21.0393 25.8867 21.0393 31.8052V36.5684V38.2937C21.0393 43.544 18.9618 48.5778 15.2493 52.2903L11.1388 56.4008C6.95374 60.5858 6.95374 67.4297 11.1388 71.6147L15.2493 75.7251C18.9618 79.4376 21.0393 84.4679 21.0393 89.7182V96.2067C21.0393 102.125 25.875 106.961 31.7936 106.961H38.2786C43.5289 106.961 48.5664 109.042 52.2789 112.754L56.3894 116.861C60.5745 121.046 67.4115 121.046 71.5965 116.861L75.7105 112.754C79.423 109.042 84.457 106.961 89.7073 106.961H96.1924C102.111 106.961 106.947 102.125 106.947 96.2067V89.7182C106.947 84.4679 109.042 79.4376 112.754 75.7251L116.861 71.6147C121.046 67.4297 121.046 60.5859 116.861 56.4008L112.754 52.2903C109.042 48.5778 106.947 43.544 106.947 38.2937V31.8052C106.947 25.8867 102.111 21.051 96.1924 21.051H89.7073C84.457 21.051 79.423 18.9737 75.7105 15.2612L71.5965 11.1508C69.504 9.05823 66.7492 8.00001 63.9929 8Z" fill="#9E2891"/>
<path d="M56.417 54.2498C56.417 52.056 58.3571 49.9165 60.7503 49.9165C63.1436 49.9165 65.0837 51.6949 65.0837 53.8887C65.0837 54.6795 64.8317 55.4163 64.397 56.0353C63.102 57.8802 60.7503 59.6394 60.7503 61.8332" stroke="white" stroke-width="3.25" stroke-linecap="round"/>
<path d="M60.75 67.25H60.7695" stroke="white" stroke-width="3.25" stroke-linecap="round" stroke-linejoin="round"/>
<path d="M55.333 80.25C57.6088 82.1344 60.3478 83.3349 63.4873 83.5407C65.9609 83.703 68.5434 83.7028 71.0121 83.5407C71.8621 83.4851 72.7888 83.2848 73.5867 82.9605C74.4744 82.5997 74.9186 82.4193 75.1444 82.4466C75.3699 82.4739 75.6973 82.7122 76.3521 83.1887C77.5065 84.0287 78.9607 84.6321 81.1174 84.5803C82.2079 84.5541 82.7533 84.5409 82.9972 84.1303C83.2414 83.7195 82.9374 83.151 82.3292 82.0139C81.486 80.4368 80.9517 78.6313 81.7614 77.1846C83.1558 75.1182 84.3401 72.6712 84.5132 70.0283C84.6062 68.6083 84.6062 67.1375 84.5132 65.7175C84.398 63.9564 83.9705 62.2825 83.2856 60.75" stroke="white" stroke-width="3.25" stroke-linecap="round" stroke-linejoin="round"/>
<path d="M64.5127 74.8739C71.7633 74.3983 77.5387 68.6181 78.0139 61.3615C78.1068 59.9415 78.1068 58.4707 78.0139 57.0506C77.5387 49.794 71.7633 44.0137 64.5127 43.5381C62.0391 43.3758 59.4565 43.3761 56.988 43.5381C49.7374 44.0137 43.962 49.794 43.4867 57.0506C43.3937 58.4707 43.3937 59.9415 43.4867 61.3615C43.6598 64.0044 44.8443 66.4514 46.2387 68.5178C47.0483 69.9645 46.514 71.7699 45.6707 73.3471C45.0626 74.4841 44.7586 75.0527 45.0027 75.4635C45.2468 75.874 45.7921 75.8873 46.8827 75.9135C49.0393 75.9653 50.4937 75.3618 51.648 74.5218C52.3028 74.0454 52.6301 73.807 52.8558 73.7797C53.0814 73.7524 53.5254 73.9329 54.4133 74.2937C55.2113 74.618 56.1379 74.8182 56.988 74.8739C59.4565 75.036 62.0391 75.0362 64.5127 74.8739Z" stroke="white" stroke-width="3.25" stroke-linejoin="round"/>
</svg>
